<svg width="64" height="64" viewBox="0 0 64 64" fill="none" xmlns="http://www.w3.org/2000/svg">
<path fill-rule="evenodd" clip-rule="evenodd" d="M64 0H0V64H64V0ZM28.0017 20C23.1357 20 20.2299 23.355 27.2874 23.3548C32.1535 23.3546 35.0594 19.9998 28.0017 20ZM34.0247 24.9192C34.974 22.9939 38.4835 21.9102 43.3183 21.9102C50.2168 21.9102 57.1808 26.3657 45.7381 27.7983C44.7181 27.9261 44.0548 29.225 46.8517 29.397C60.5779 30.2429 64.6227 39.0356 48.6832 40.6562C47.6733 40.7592 47.4403 41.2732 47.8988 41.9981C49.9763 45.2834 43.4545 47.3111 31.4054 47.3111C19.6098 47.3111 11.6669 44.7415 15.308 41.2313C15.6102 40.9399 15.4836 40.4895 14.8491 40.3995C-0.142547 38.277 2.74882 31.4252 18.3195 30.6773C18.9414 30.6473 19.1702 30.3227 18.9078 30.0372C16.8942 27.8449 24.6625 24.6454 34.0247 24.9192ZM53.9704 47.2699C47.8306 46.8539 49.8166 44.2503 53.8095 44.1785C54.0756 44.1737 54.3501 44.1802 54.6322 44.1991C61.1815 44.6432 58.4859 47.5757 53.9704 47.2699ZM15.2238 48.5946C7.5626 48.5948 4.11208 54.0004 15.2238 54C22.885 53.9998 26.3356 48.5942 15.2238 48.5946Z" fill="white"/>
</svg>
