<svg width="64" height="64" viewBox="0 0 64 64" fill="none" xmlns="http://www.w3.org/2000/svg">
<path d="M32.1476 52.6366C25.3154 49.781 22.6842 40.6833 25.903 31.9892C16.271 44.1722 24.2939 59.0904 37.6618 53.3595C35.7993 53.5246 33.8955 53.3673 32.1476 52.6366Z" fill="white"/>
<path fill-rule="evenodd" clip-rule="evenodd" d="M64 0H0V64H64V0ZM24.5339 28.1371C27.5059 22.909 30.9019 16.9352 32.6115 7C34.3728 16.8869 37.688 23.1635 40.5733 28.6263C43.4837 34.1365 45.9567 38.8187 45.9567 45.543C45.9567 52.1882 39.4546 57 32.6115 57C25.9187 57 19 51.8551 19 44.8561C19 37.8718 21.5538 33.3793 24.5339 28.1371Z" fill="white"/>
</svg>
