<svg width="64" height="64" viewBox="0 0 64 64" fill="none" xmlns="http://www.w3.org/2000/svg">
<path d="M45.7787 8.86154C42.3181 7.82508 37.4138 7.15816 31.9999 7.15816C26.5862 7.15816 21.6857 7.82496 18.2251 8.86131C16.4948 9.3796 15.1267 9.99778 14.2698 10.6043C13.413 11.2112 13.1583 11.711 13.1583 12.0478C13.1583 12.3851 13.4129 12.8813 14.2698 13.4879C15.1267 14.0946 16.4948 14.7126 18.2251 15.2312C21.6857 16.2674 26.5864 16.9345 32 16.9345C37.4138 16.9345 42.3181 16.2674 45.7787 15.2312C47.509 14.7129 48.8771 14.0947 49.734 13.4882C50.5908 12.8814 50.842 12.3851 50.842 12.0481C50.842 11.7111 50.5909 11.2113 49.734 10.6045C48.8771 9.9979 47.509 9.37971 45.7787 8.86154Z" fill="white"/>
<path d="M17.6044 17.299C15.966 16.8083 14.5741 16.2366 13.4759 15.5523L14.8006 29.2192C17.0463 27.4154 23.7808 26.1081 31.7404 26.1081C35.6918 26.1081 39.3408 26.4287 42.2891 26.9742L42.7511 18.1686C39.6116 18.7587 35.9393 19.0925 32.0001 19.0925C26.4118 19.0925 21.3539 18.422 17.6044 17.299Z" fill="white"/>
<path d="M50.3186 15.679C49.5557 16.1301 48.6595 16.5308 47.6483 16.8913L46.5873 28.1147C47.5176 28.4696 48.251 28.8576 48.7452 29.2734L50.3186 15.679Z" fill="white"/>
<path d="M47.3235 41.5722L48.4241 32.045C47.8566 32.4366 47.0719 32.8033 46.1108 33.1347L45.0533 44.3222C46.0826 43.5335 46.8662 42.6161 47.3235 41.5722Z" fill="white"/>
<path d="M15.0749 32.0557C17.5586 33.7537 24.0826 34.9681 31.7402 34.9681C35.5269 34.9681 39.033 34.6682 41.9137 34.1632L41.2785 46.3107C32.7351 49.4409 18.51 47.9552 15.9768 41.3882L15.0749 32.0557Z" fill="white"/>
<path fill-rule="evenodd" clip-rule="evenodd" d="M64 0H0V64H64V0ZM17.6043 6.79346C21.3538 5.67061 26.4116 5 31.9999 5C37.5883 5 42.6462 5.67073 46.3957 6.79381C48.2706 7.35506 49.8196 8.02255 50.979 8.84364C52.1385 9.6645 53 10.7376 53 12.0483C53 12.4471 52.92 12.8238 52.7763 13.1777L48.1893 52.8681H48.1858C48.1092 53.9342 47.3516 54.7095 46.4353 55.2967C45.495 55.8995 44.2712 56.3808 42.7976 56.7908C39.8508 57.611 35.9059 58.108 31.5452 58.108C27.1848 58.108 23.2372 57.6111 20.2927 56.7908C18.8205 56.3806 17.6005 55.9006 16.6624 55.2968C15.7452 54.7065 14.9846 53.9205 14.9227 52.8462H14.9193L11.0073 12.4452H11.0289C11.0112 12.315 11 12.1833 11 12.048C11 10.7376 11.8615 9.66438 13.021 8.84329C14.1804 8.02255 15.7295 7.35506 17.6043 6.79346Z" fill="white"/>
</svg>
