<svg width="64" height="64" viewBox="0 0 64 64" fill="none" xmlns="http://www.w3.org/2000/svg">
<path d="M43.469 12.272C40.5368 11.3938 36.3812 10.8287 31.7938 10.8287C27.2067 10.8287 23.0543 11.3937 20.1221 12.2718C18.6559 12.711 17.4967 13.2348 16.7706 13.7487C16.0446 14.2629 15.8288 14.6864 15.8288 14.9719C15.8288 15.2576 16.0445 15.6781 16.7706 16.1921C17.4967 16.7061 18.6559 17.2298 20.1221 17.6692C23.0543 18.5472 27.2068 19.1125 31.7939 19.1125C36.3812 19.1125 40.5368 18.5472 43.469 17.6692C44.9351 17.23 46.0944 16.7062 46.8205 16.1923C47.5464 15.6782 47.7593 15.2576 47.7593 14.972C47.7593 14.6865 47.5465 14.263 46.8205 13.7489C46.0944 13.2349 44.9351 12.7111 43.469 12.272Z" fill="white"/>
<path d="M19.5961 19.4213C18.2079 19.0055 17.0284 18.5211 16.0979 17.9413L17.2203 29.5217C19.1232 27.9932 24.8296 26.8855 31.574 26.8855C34.9221 26.8855 38.014 27.1572 40.5122 27.6194L40.9036 20.1581C38.2435 20.6582 35.1318 20.941 31.794 20.941C27.0588 20.941 22.7732 20.3728 19.5961 19.4213Z" fill="white"/>
<path d="M47.3158 18.0486C46.6694 18.4309 45.91 18.7703 45.0532 19.0759L44.1542 28.5858C44.9425 28.8865 45.5639 29.2153 45.9827 29.5676L47.3158 18.0486Z" fill="white"/>
<path d="M44.778 39.9887L45.7105 31.916C45.2297 32.2478 44.5648 32.5585 43.7504 32.8394L42.8544 42.3188C43.7266 41.6506 44.3905 40.8733 44.778 39.9887Z" fill="white"/>
<path d="M17.4527 31.9251C19.5573 33.3639 25.0853 34.3929 31.5738 34.3929C34.7823 34.3929 37.7532 34.1387 40.1941 33.7108L39.6559 44.0038C32.4168 46.6561 20.3635 45.3972 18.217 39.8328L17.4527 31.9251Z" fill="white"/>
<path fill-rule="evenodd" clip-rule="evenodd" d="M64 0H0V64H64V0ZM19.596 10.5197C22.7731 9.56823 27.0587 9 31.7938 9C36.529 9 40.8148 9.56833 43.9918 10.5199C45.5805 10.9955 46.893 11.5611 47.8754 12.2568C48.8579 12.9524 49.5878 13.8616 49.5878 14.9722C49.5878 15.3101 49.52 15.6293 49.3983 15.9292L45.5116 49.56H45.5087C45.4437 50.4634 44.8018 51.1203 44.0254 51.6179C43.2286 52.1287 42.1917 52.5365 40.9431 52.8839C38.4461 53.5788 35.1035 54 31.4086 54C27.7139 54 24.369 53.5789 21.874 52.8839C20.6266 52.5363 19.5928 52.1295 18.7979 51.618C18.0208 51.1178 17.3763 50.4518 17.3239 49.5415H17.3209L14.0062 15.3086H14.0245C14.0095 15.1982 14 15.0866 14 14.9719C14 13.8616 14.73 12.9523 15.7124 12.2565C16.6949 11.5611 18.0075 10.9955 19.596 10.5197Z" fill="white"/>
</svg>
