<svg width="54" height="65" viewBox="0 0 54 65" fill="none" xmlns="http://www.w3.org/2000/svg">
<path d="M12.0256 32.759C9.5703 46.4413 13.8585 64.4124 13.8585 64.4124C13.8585 64.4124 19.634 44.3052 26.7584 44.3052C33.8828 44.3052 39.6583 64.4124 39.6583 64.4124C39.6583 64.4124 43.9465 46.4413 41.4912 32.759C48.7369 32.1927 53.5167 31.424 53.5167 31.424C53.5167 31.424 51.0821 20.6179 36.4232 17.9176C37.6132 16.1315 38.3067 13.9862 38.3067 11.679C38.3067 5.45662 33.2624 0.412354 27.04 0.412354C20.8176 0.412354 15.7733 5.45662 15.7733 11.679C15.7733 14.2484 16.6334 16.6169 18.0813 18.5123C2.54326 21.9469 0 31.424 0 31.424C0 31.424 4.77989 32.1927 12.0256 32.759Z" fill="white"/>
</svg>
