<svg width="64" height="64" viewBox="0 0 64 64" fill="none" xmlns="http://www.w3.org/2000/svg">
<path fill-rule="evenodd" clip-rule="evenodd" d="M64 0H0V64H64V0ZM20.3004 63.3047C20.3004 63.3047 16.4943 47.3542 18.6736 35.2102C12.2425 34.7075 8 34.0252 8 34.0252C8 34.0252 10.2573 25.6136 24.0486 22.5651C22.7634 20.8828 22 18.7806 22 16.5C22 10.9772 26.4772 6.5 32 6.5C37.5229 6.5 42 10.9772 42 16.5C42 18.5479 41.3844 20.452 40.3282 22.0374C53.339 24.434 55.5 34.0252 55.5 34.0252C55.5 34.0252 51.2575 34.7075 44.8264 35.2102C47.0057 47.3542 43.1996 63.3047 43.1996 63.3047C43.1996 63.3047 38.0734 45.4581 31.75 45.4581C25.4266 45.4581 20.3004 63.3047 20.3004 63.3047Z" fill="#C9B941"/>
</svg>
