<svg width="16" height="16" viewBox="0 0 16 16" fill="none" xmlns="http://www.w3.org/2000/svg">
<path fill-rule="evenodd" clip-rule="evenodd" d="M16 0H0V16H16V0ZM5.0751 15.8262C5.0751 15.8262 4.12358 11.8385 4.66839 8.80255C3.06062 8.67688 2 8.5063 2 8.5063C2 8.5063 2.56434 6.4034 6.01215 5.64129C5.69085 5.2207 5.5 4.69514 5.5 4.125C5.5 2.74429 6.61929 1.625 8 1.625C9.38071 1.625 10.5 2.74429 10.5 4.125C10.5 4.63697 10.3461 5.113 10.0821 5.50934C13.3348 6.1085 13.875 8.5063 13.875 8.5063C13.875 8.5063 12.8144 8.67688 11.2066 8.80255C11.7514 11.8385 10.7999 15.8262 10.7999 15.8262C10.7999 15.8262 9.51836 11.3645 7.9375 11.3645C6.35664 11.3645 5.0751 15.8262 5.0751 15.8262Z" fill="white"/>
</svg>
