<svg width="64" height="64" viewBox="0 0 64 64" fill="none" xmlns="http://www.w3.org/2000/svg">
<path d="M45.6525 28.1218C44.9265 22.8856 43.9987 16.1953 42.9006 11.9798C42.7329 13.3535 42.0023 13.4494 40.8167 12.5272C41.8654 16.5825 42.8323 23.5072 43.5758 28.8313C43.7324 29.9523 43.879 31.0024 44.0144 31.9397C44.4455 33.2332 46.0384 33.7362 46.1462 31.6283C45.9939 30.5832 45.8292 29.3955 45.6525 28.1218Z" fill="#C9B941"/>
<path d="M27.5828 33.844C27.954 27.4486 28.0858 20.9693 27.6666 14.3823C27.2115 15.6398 26.5767 16.1189 25.5108 14.526C25.93 20.9933 25.7983 27.3767 25.427 33.7242C25.7504 35.5326 27.6067 35.1614 27.5828 33.844Z" fill="#C9B941"/>
<path d="M34.3015 24.2509C34.3494 22.2149 34.2177 20.3705 33.8344 17.077C33.2356 18.107 32.541 18.3465 31.7026 17.3165C32.0619 20.5861 32.1937 22.2867 32.1458 24.203C32.8284 25.197 33.535 25.3886 34.3015 24.2509Z" fill="#C9B941"/>
<path d="M40.7688 38.8741C40.6131 31.1133 40.5053 26.4066 40.0981 20.3346C39.5112 21.1969 38.8406 21.5921 37.9423 20.4783C38.3495 26.5024 38.4573 31.1613 38.613 38.922C39.5461 40.2078 40.1116 39.5908 40.6793 38.9713C40.7091 38.9388 40.7389 38.9063 40.7688 38.8741Z" fill="#C9B941"/>
<path fill-rule="evenodd" clip-rule="evenodd" d="M64 0H0V64H64V0ZM47.763 7.39289C49.4277 5.77008 51.0086 5 52.6134 5C54.2183 4.9988 55.859 5.76769 57.6076 7.22043C58.3459 8.00742 58.8323 8.86182 59.2951 9.67488C59.4704 9.98282 59.6423 10.2848 59.8232 10.575L58.0028 11.7224C57.7742 11.3573 57.5687 11.0055 57.3736 10.6715C56.9248 9.90313 56.5312 9.22927 56.0387 8.7067C55.3321 7.95697 54.4219 7.40007 52.4937 7.17252C51.5595 7.06114 50.4816 7.73302 49.272 8.92826C48.7652 9.43036 48.2511 9.99939 47.7296 10.5766C47.5856 10.7359 47.441 10.8959 47.2959 11.0553C47.1043 10.3582 46.8169 9.51391 46.3737 8.84443C46.4339 8.78015 46.494 8.71575 46.5543 8.6513C46.9496 8.22812 47.3473 7.80238 47.763 7.39289ZM3 11.3295C5.15096 9.13545 8.06721 7.05994 14.4566 7.0324C16.6517 7.02801 17.7605 8.24268 19.304 9.93346C19.4447 10.0877 19.5891 10.2458 19.7382 10.4073C20.3131 11.0181 21.2233 12.0313 21.2472 13.102H19.4508L15.3189 9.20731C8.7355 9.03605 6.62645 10.7103 4.54016 12.8386L3 11.3295ZM28.481 8.27315C29.6068 8.23004 30.8164 8.20489 32.026 8.20489C32.7566 8.20608 33.4751 8.21686 34.1937 8.24082C35.6545 9.99831 35.6806 11.8875 35.7094 13.9823C35.7111 14.103 35.7128 14.2243 35.7147 14.3464C35.8105 16.3584 38.0022 15.6159 37.8705 14.3224C37.8694 14.239 37.8683 14.1548 37.8673 14.0698C37.8464 12.3608 37.8217 10.3304 36.8405 8.37495C39.1879 8.54142 41.5233 8.84443 43.703 9.33785C44.1461 9.43846 44.4455 9.71152 44.7449 10.3043C45.0563 10.8984 45.2839 11.7619 45.4515 12.6469H45.4396C47.7271 25.1491 49.4038 36.9578 50.7451 48.1438C49.9187 48.2396 49.0924 48.4672 48.3019 48.7426L47.6672 40.5388C46.9486 41.9041 46.23 41.3651 45.5114 40.7064L46.1941 49.557C45.4755 49.8684 44.8767 50.1558 44.4096 50.3954C44.0623 49.9403 43.6551 49.4253 43.2359 48.9941L43.2599 44.4191C42.709 45.2455 42.0503 45.485 41.1041 44.4191L41.0921 47.2815C40.6849 47.1018 40.2418 46.9941 39.7508 46.9821C37.7747 46.9462 36.1339 48.3354 34.7686 49.6887C34.9243 42.9101 34.8285 36.1195 34.5051 29.3408C33.9422 30.275 33.3793 30.79 32.3494 29.4366C32.6727 36.2033 32.7685 42.958 32.6128 49.7247C32.4332 49.2935 32.2416 48.8504 32.026 48.3953C31.4272 47.1497 30.7086 45.8802 29.8223 44.8503C29.7824 44.8064 29.7438 44.7625 29.7053 44.7186C29.6281 44.6307 29.5509 44.5429 29.4631 44.4551C29.4704 43.6647 29.4847 42.9141 29.4983 42.1922C29.529 40.5733 29.557 39.0983 29.499 37.6405C28.6247 38.91 27.978 38.383 27.3432 37.7123C27.3906 38.9914 27.3705 40.3304 27.3482 41.8183C27.3423 42.2112 27.3363 42.6145 27.3313 43.0299C27.0438 42.946 26.7444 42.8861 26.433 42.8622H26.421C25.0318 42.7784 23.8341 43.5089 22.8281 44.4191C22.6245 44.5988 22.4329 44.8023 22.2413 45.0059C23.0677 34.1313 23.4629 23.3047 23.403 12.5631C23.403 11.4889 22.1903 10.0033 21.3195 8.93655C21.2951 8.9067 21.271 8.87719 21.2472 8.84802C22.6126 8.68274 24.2533 8.52106 26.0737 8.4013C26.5887 9.17258 26.9959 10.5115 27.1396 11.5427C27.4031 12.7308 29.3912 12.6469 29.2714 11.2529C29.1517 10.3547 28.9361 9.27677 28.481 8.27315ZM9.03371 45.497C8.70077 44.2515 9.35109 41.952 10.6362 41.9879C12.9596 42.0478 13.1991 48.4672 13.1991 48.4672C13.1991 48.4672 9.47444 47.1497 9.03371 45.497ZM16.1094 42.2155C16.1573 42.1077 16.2172 42.0119 16.313 41.94C16.8998 41.4131 18.325 41.6765 18.8879 42.2514C19.5226 42.8981 18.816 44.982 18.816 44.982C18.816 44.982 15.6064 43.4011 16.1094 42.2155ZM54.4219 41.4969C54.4698 41.4849 54.5177 41.4849 54.5776 41.4849C55.3201 41.5089 55.895 42.7664 55.7992 43.5209C55.6794 44.5868 53.4278 45.6767 53.4278 45.6767C52.7572 44.3473 53.0206 41.7604 54.4219 41.4969ZM56.1345 50.9582C56.1345 50.9582 55.7153 44.0718 58.1465 43.9401C59.6795 43.8562 60.2903 46.7425 59.8711 48.2156C59.452 49.7007 56.1345 50.9582 56.1345 50.9582ZM22.0377 48.8264C22.7203 47.7605 23.4988 46.7186 24.2773 46.012C25.7623 44.6946 26.6726 44.6467 28.1936 46.2515C28.8762 47.0539 29.5349 48.1797 30.0738 49.3295C31.1637 51.605 31.7985 53.8925 31.7985 53.8925L32.4092 56.0841L33.7267 54.2278C33.7267 54.2278 34.6728 52.8864 35.9543 51.569C37.2477 50.2397 38.9364 49.1259 39.7268 49.1378C39.9903 49.1378 41.0562 49.8085 41.8466 50.6588C42.6251 51.5092 43.2 52.3834 43.2 52.3834L43.7509 53.2218L44.6372 52.7188C44.6372 52.7188 46.0504 51.9164 47.7989 51.2217C49.5355 50.5391 51.6433 50.1079 52.5176 50.3954C54.338 50.9822 56.5058 51.9762 57.907 53.3296C59.1885 54.5512 59.8831 55.9045 59.4639 57.8686C47.4636 60.3477 24.6725 59.5932 10.2337 57.8207C9.14509 56.4674 8.97622 55.5213 9.14509 54.7548C9.46486 53.4493 10.8242 52.0122 12.4302 52.0721C14.9357 52.1679 16.7202 52.8505 19.355 54.1799L19.7861 53.138C19.7861 53.138 20.6963 50.9582 22.0377 48.8264ZM3.92098 48.0959C4.14494 47.7007 4.58927 47.545 5.10066 47.5569C5.95218 47.5689 6.98694 48.024 7.48875 48.5749C8.4313 49.6289 7.60732 52.8026 7.60732 52.8026C7.60732 52.8026 2.93054 49.8205 3.92098 48.0959Z" fill="#C9B941"/>
</svg>
